<svg xmlns="http://www.w3.org/2000/svg" height="512pt" version="1.1" viewBox="0 -88 512.00001 512" width="512pt">
<g id="surface1">
<path d="M 211.863281 0 L 17.65625 0 C 7.917969 0.0273438 0.0273438 7.917969 0 17.65625 L 0 26.484375 L 211.863281 26.484375 Z M 211.863281 0 " style=" stroke:none;fill-rule:nonzero;fill:rgb(44.705882%,40%,34.509804%);fill-opacity:1;" />
<path d="M 423.722656 26.484375 L 423.722656 17.65625 C 423.695312 7.917969 415.808594 0.0273438 406.070312 0 L 211.863281 0 L 211.863281 26.484375 Z M 423.722656 26.484375 " style=" stroke:none;fill-rule:nonzero;fill:rgb(55.686275%,52.156863%,47.45098%);fill-opacity:1;" />
<path d="M 0 26.484375 L 211.863281 26.484375 L 211.863281 220.691406 L 0 220.691406 Z M 0 26.484375 " style=" stroke:none;fill-rule:nonzero;fill:rgb(69.803922%,84.313725%,95.686275%);fill-opacity:1;" />
<path d="M 211.863281 220.6875 L 308.964844 220.6875 L 308.964844 211.863281 C 308.996094 202.121094 316.882812 194.234375 326.621094 194.207031 L 353.101562 194.207031 L 353.101562 123.585938 C 353.132812 113.847656 361.019531 105.960938 370.757812 105.929688 L 423.722656 105.929688 L 423.722656 26.484375 L 211.863281 26.484375 Z M 211.863281 220.6875 " style=" stroke:none;fill-rule:nonzero;fill:rgb(75.686275%,87.45098%,96.470588%);fill-opacity:1;" />
<path d="M 211.863281 220.6875 L 211.863281 247.171875 L 308.964844 247.171875 L 308.964844 220.6875 Z M 211.863281 220.6875 " style=" stroke:none;fill-rule:nonzero;fill:rgb(55.686275%,52.156863%,47.45098%);fill-opacity:1;" />
<path d="M 211.863281 220.6875 L 0 220.6875 L 0 229.515625 C 0.0273438 239.253906 7.917969 247.144531 17.65625 247.171875 L 211.863281 247.171875 Z M 211.863281 220.6875 " style=" stroke:none;fill-rule:nonzero;fill:rgb(44.705882%,40%,34.509804%);fill-opacity:1;" />
<path d="M 432.550781 132.414062 L 512 132.414062 L 512 291.3125 L 432.550781 291.3125 Z M 432.550781 132.414062 " style=" stroke:none;fill-rule:nonzero;fill:rgb(75.686275%,87.45098%,96.470588%);fill-opacity:1;" />
<path d="M 353.101562 194.207031 L 379.585938 194.207031 C 389.324219 194.234375 397.210938 202.121094 397.242188 211.863281 L 397.242188 291.308594 L 432.550781 291.308594 L 432.550781 132.414062 L 353.101562 132.414062 Z M 353.101562 194.207031 " style=" stroke:none;fill-rule:nonzero;fill:rgb(69.803922%,84.313725%,95.686275%);fill-opacity:1;" />
<path d="M 432.550781 317.792969 L 494.34375 317.792969 C 504.082031 317.761719 511.972656 309.875 512 300.136719 L 512 291.308594 L 432.550781 291.308594 Z M 432.550781 317.792969 " style=" stroke:none;fill-rule:nonzero;fill:rgb(55.686275%,52.156863%,47.45098%);fill-opacity:1;" />
<path d="M 397.242188 291.308594 L 397.242188 317.792969 L 432.550781 317.792969 L 432.550781 291.308594 Z M 397.242188 291.308594 " style=" stroke:none;fill-rule:nonzero;fill:rgb(44.705882%,40%,34.509804%);fill-opacity:1;" />
<path d="M 353.101562 123.585938 L 353.101562 132.414062 L 432.550781 132.414062 L 432.550781 105.929688 L 370.757812 105.929688 C 361.019531 105.960938 353.132812 113.847656 353.101562 123.585938 Z M 353.101562 123.585938 " style=" stroke:none;fill-rule:nonzero;fill:rgb(44.705882%,40%,34.509804%);fill-opacity:1;" />
<path d="M 494.34375 105.929688 L 432.550781 105.929688 L 432.550781 132.414062 L 512 132.414062 L 512 123.585938 C 511.972656 113.847656 504.082031 105.960938 494.34375 105.929688 Z M 494.34375 105.929688 " style=" stroke:none;fill-rule:nonzero;fill:rgb(55.686275%,52.156863%,47.45098%);fill-opacity:1;" />
<path d="M 353.101562 220.6875 L 308.964844 220.6875 L 308.964844 308.964844 L 353.101562 308.964844 Z M 353.101562 220.6875 " style=" stroke:none;fill-rule:nonzero;fill:rgb(69.803922%,84.313725%,95.686275%);fill-opacity:1;" />
<path d="M 353.101562 220.6875 L 353.101562 308.964844 L 397.242188 308.964844 L 397.242188 220.6875 Z M 353.101562 220.6875 " style=" stroke:none;fill-rule:nonzero;fill:rgb(75.686275%,87.45098%,96.470588%);fill-opacity:1;" />
<path d="M 353.101562 308.964844 L 353.101562 335.449219 L 379.585938 335.449219 C 389.324219 335.417969 397.210938 327.53125 397.242188 317.792969 L 397.242188 308.964844 Z M 353.101562 308.964844 " style=" stroke:none;fill-rule:nonzero;fill:rgb(55.686275%,52.156863%,47.45098%);fill-opacity:1;" />
<path d="M 308.964844 308.964844 L 308.964844 317.792969 C 308.996094 327.53125 316.882812 335.417969 326.621094 335.449219 L 353.101562 335.449219 L 353.101562 308.964844 Z M 308.964844 308.964844 " style=" stroke:none;fill-rule:nonzero;fill:rgb(44.705882%,40%,34.509804%);fill-opacity:1;" />
<path d="M 397.242188 211.863281 C 397.210938 202.121094 389.324219 194.234375 379.585938 194.207031 L 353.105469 194.207031 L 353.105469 220.6875 L 397.242188 220.6875 Z M 397.242188 211.863281 " style=" stroke:none;fill-rule:nonzero;fill:rgb(55.686275%,52.156863%,47.45098%);fill-opacity:1;" />
<path d="M 326.621094 194.207031 C 316.882812 194.234375 308.992188 202.121094 308.964844 211.863281 L 308.964844 220.6875 L 353.101562 220.6875 L 353.101562 194.207031 Z M 326.621094 194.207031 " style=" stroke:none;fill-rule:nonzero;fill:rgb(44.705882%,40%,34.509804%);fill-opacity:1;" />
<path d="M 282.484375 291.308594 L 256 291.308594 L 256 247.171875 L 211.863281 247.171875 L 211.863281 308.964844 L 282.484375 308.964844 C 287.359375 308.964844 291.3125 305.015625 291.3125 300.136719 C 291.3125 295.261719 287.359375 291.308594 282.484375 291.308594 Z M 282.484375 291.308594 " style=" stroke:none;fill-rule:nonzero;fill:rgb(47.058824%,44.313725%,40.784314%);fill-opacity:1;" />
<path d="M 167.722656 247.171875 L 167.722656 291.308594 L 141.242188 291.308594 C 136.367188 291.308594 132.414062 295.261719 132.414062 300.136719 C 132.414062 305.015625 136.367188 308.964844 141.242188 308.964844 L 211.863281 308.964844 L 211.863281 247.171875 Z M 167.722656 247.171875 " style=" stroke:none;fill-rule:nonzero;fill:rgb(33.72549%,30.196078%,25.882353%);fill-opacity:1;" />
</g>
</svg>